<svg width="122" height="44" viewBox="0 0 122 44" fill="none" xmlns="http://www.w3.org/2000/svg">
<g id="Frame" clip-path="url(#clip0_3429_2610)">
<path id="Vector" d="M92.927 6.85246C92.927 7.03279 92.8657 7.21312 92.8657 7.39344C92.8657 13.4044 92.8657 19.4153 92.8657 25.4262C92.8657 26.0874 93.1724 26.1475 93.7244 26.1475C98.8767 26.1475 103.968 26.1475 109.12 26.1475C111.635 26.1475 113.23 24.6448 113.23 22.1202C113.23 18.2732 113.23 14.4863 113.23 10.6393C113.23 8.83607 112.248 7.45355 110.47 7.03279C109.672 6.79235 108.813 6.73224 107.955 6.73224C103.17 6.73224 98.4474 6.79235 93.6631 6.79235C93.3564 6.79235 93.1724 6.79235 92.927 6.85246ZM82.0703 0H82.9904C92.743 0 102.496 0 112.31 0C113.782 0 115.315 0.240437 116.787 0.420765C119.731 0.84153 121.388 2.64481 121.756 5.53006C121.878 6.43169 122.001 7.33333 122.001 8.23497C122.001 13.6448 122.062 19.0546 122.001 24.4645C122.001 25.6066 121.878 26.8087 121.572 27.9508C120.958 30.4153 119.486 32.0383 116.849 32.3989C115.561 32.5792 114.211 32.7596 112.862 32.7596C106.544 32.8197 100.165 32.7596 93.8471 32.7596C93.0497 32.7596 92.8043 33 92.8657 33.7213C92.9884 35.8852 92.559 38.0492 93.2951 40.153C93.7857 41.4754 94.3991 42.6776 94.9512 44H82.1316C82.561 42.8579 83.0517 41.8361 83.2971 40.694C83.6037 39.3115 83.9104 37.8689 83.9104 36.4262C83.9718 27.6503 83.8491 18.8142 83.9718 10.0383C84.0331 7.0929 83.4197 4.26776 82.561 1.50273C82.377 1.08197 82.2543 0.601093 82.0703 0Z" fill="#31AB5C"/>
<path id="Vector_2" d="M58.639 19.776C56.0015 19.776 53.3026 19.776 50.6651 19.776C49.4384 19.776 48.3956 20.2568 47.5982 21.1585C46.3715 22.6011 46.7395 24.7049 48.457 25.5464C49.1317 25.847 49.9291 26.0874 50.7265 26.0874C55.5108 26.1475 60.2951 26.0874 65.0794 26.0874C66.7355 26.0874 67.5942 25.306 67.6556 23.6229C67.6556 22.6011 67.6556 21.5792 67.6556 20.5574C67.7169 19.8962 67.4716 19.7158 66.7968 19.7158C64.0367 19.776 61.3378 19.776 58.639 19.776ZM40.7898 9.79781V0H41.7099C49.7451 0 57.7803 0 65.8154 0C68.0849 0 70.4157 0.180328 72.6239 0.781421C73.9733 1.14208 75.016 1.9235 75.4454 3.18579C75.9361 4.74863 76.4268 6.37158 76.4881 7.93443C76.6108 13.5847 76.5495 19.235 76.5495 24.9454C76.5495 27.5301 77.1629 29.9344 78.5123 32.1585C78.5736 32.2787 78.6349 32.459 78.7576 32.6995H75.6294C74.5253 32.6995 73.4826 32.6995 72.3785 32.6995C70.3544 32.6995 70.3544 32.6995 68.3916 31.3169C66.6742 33 64.5274 32.8197 62.3192 32.8197C57.2896 32.8197 52.2599 32.8197 47.1689 32.7596C45.8195 32.7596 44.4087 32.5191 43.0593 32.2787C40.2991 31.7978 38.8883 29.9945 38.7043 27.4699C38.459 24.3443 38.3976 21.1585 38.5203 17.9727C38.643 15.4481 40.3604 13.8852 43.366 13.4044C45.0221 13.1038 46.6782 12.9836 48.3343 12.9836C54.3454 12.9235 60.3564 12.9836 66.3675 12.9836C67.5942 12.9836 67.6556 12.9836 67.6556 11.7213C67.6556 11.1202 67.5942 10.5792 67.5329 9.97814C67.1649 7.87432 66.0608 6.73224 63.3006 6.67213C58.7616 6.61202 54.1613 6.85246 49.6224 6.61202C46.3102 6.4918 43.55 7.33333 41.1578 9.43716C41.0965 9.61749 40.9738 9.6776 40.7898 9.79781Z" fill="#31AB5C"/>
<path id="Vector_3" d="M34.1033 0.0605469C34.1033 1.92393 34.1033 3.6671 34.1033 5.41027C34.1033 5.71082 33.7966 6.07148 33.5512 6.31191C27.5402 12.2026 21.4678 18.1534 15.4567 24.1043C14.8434 24.7054 14.23 25.3666 13.4326 26.148C13.9233 26.148 14.23 26.2081 14.5367 26.2081C18.5236 26.2081 22.5105 26.148 26.4974 26.2081C28.2149 26.2682 29.8097 25.8474 31.2204 24.9458C32.2018 24.3447 33.1219 23.7436 34.1646 23.1425V32.76H-0.00029066C-0.00029066 31.2573 -0.061628 29.7545 0.0610467 28.3119C0.0610467 27.9513 0.551746 27.5906 0.91977 27.2901C6.25612 22.1207 11.5925 17.0114 16.8675 11.842C18.4009 10.3392 19.9344 8.89661 21.4678 7.39388C21.6518 7.21355 21.7745 7.09333 22.0198 6.79279C21.5291 6.79279 21.2224 6.73268 20.9157 6.73268C16.1314 6.73268 11.2858 6.79279 6.50147 6.73268C5.09071 6.73268 3.86396 7.15344 2.82123 7.99497C1.90117 8.71628 1.04244 9.4376 0.0610467 10.219V0.0605469H34.1033Z" fill="#31AB5C"/>
</g>
<defs>
<clipPath id="clip0_3429_2610">
<rect width="122" height="44" fill="white"/>
</clipPath>
</defs>
</svg>
